<svg xmlns:xlink="http://www.w3.org/1999/xlink" width="1024" xmlns="http://www.w3.org/2000/svg" height="1024" id="screenshot-fd262ed2-27bb-807f-8002-d0338591cff1" viewBox="0 0 1024 1024" style="-webkit-print-color-adjust: exact;" fill="none" version="1.1"><g id="shape-fd262ed2-27bb-807f-8002-d0338591cff1"><defs><clipPath class="frame-clip-def frame-clip" id="frame-clip-fd262ed2-27bb-807f-8002-d0338591cff1-rumext-id-1"><rect rx="0" ry="0" x="0" y="0" width="1024" height="1024" transform="matrix(1.000000, 0.000000, 0.000000, 1.000000, 0.000000, 0.000000)"/></clipPath></defs><g clip-path="url(#frame-clip-fd262ed2-27bb-807f-8002-d0338591cff1-rumext-id-1)"><clipPath class="frame-clip-def frame-clip" id="frame-clip-fd262ed2-27bb-807f-8002-d0338591cff1-rumext-id-1"><rect rx="0" ry="0" x="0" y="0" width="1024" height="1024" transform="matrix(1.000000, 0.000000, 0.000000, 1.000000, 0.000000, 0.000000)"/></clipPath><g class="fills" id="fills-fd262ed2-27bb-807f-8002-d0338591cff1"><rect rx="0" ry="0" x="0" y="0" transform="matrix(1.000000, 0.000000, 0.000000, 1.000000, 0.000000, 0.000000)" width="1024" height="1024" class="frame-background"/></g><g class="frame-children"><g id="shape-fd262ed2-27bb-807f-8002-d0342b5c2361" width="1024px" height="1024px" version="1.1" xmlns:xlink="http://www.w3.org/1999/xlink" rx="0" ry="0" style="fill: rgb(0, 0, 0);"><g id="shape-fd262ed2-27bb-807f-8002-d0342b5d322e"><desc rx="0" ry="0" style="fill: rgb(0, 0, 0);">Created with Sketch.</desc></g><g id="shape-fd262ed2-27bb-807f-8002-d0342b5d3230" rx="0" ry="0" style="fill: rgb(0, 0, 0);"><g id="shape-fd262ed2-27bb-807f-8002-d0342b5d74aa"><g class="fills" id="fills-fd262ed2-27bb-807f-8002-d0342b5d74aa"><rect width="1024" height="1024" x="0" transform="matrix(1.000000, 0.000000, 0.000000, 1.000000, 0.000000, 0.000000)" fill-rule="evenodd" stroke="none" style="fill: rgb(0, 74, 127);" ry="125" rx="125" y="0"/></g><g id="strokes-fd262ed2-27bb-807f-8002-d0342b5d74aa" class="strokes"><g class="stroke-shape"><rect width="1024" height="1024" x="0" transform="matrix(1.000000, 0.000000, 0.000000, 1.000000, 0.000000, 0.000000)" fill-rule="evenodd" stroke="none" style="fill: none; stroke-width: 1;" ry="125" rx="125" y="0"/></g></g></g><g id="shape-fd262ed2-27bb-807f-8002-d0342b5e12ae"><g class="fills" id="fills-fd262ed2-27bb-807f-8002-d0342b5e12ae"><path fill-rule="evenodd" stroke="none" rx="0" ry="0" d="M367.823,688.794L203.000,730.000L238.225,589.101C203.339,543.145,183.000,487.913,183.000,428.500C183.000,268.614,330.298,139.000,512.000,139.000C693.702,139.000,841.000,268.614,841.000,428.500C841.000,588.386,693.702,718.000,512.000,718.000C460.287,718.000,411.361,707.501,367.823,688.794ZL367.823,688.794ZZM418.667,404.468L415.000,404.468C406.716,404.468,400.000,411.184,400.000,419.468L400.000,551.000C400.000,559.284,406.716,566.000,415.000,566.000L609.000,566.000C617.284,566.000,624.000,559.284,624.000,551.000L624.000,419.468C624.000,411.184,617.284,404.468,609.000,404.468L605.333,404.468L605.333,367.191C605.333,315.770,563.576,274.000,511.956,274.000C460.424,274.000,418.667,315.770,418.667,367.191L418.667,404.468ZZM568.000,404.468L456.000,404.468L456.000,367.198C456.000,336.345,481.054,311.277,511.974,311.277C542.946,311.277,568.000,336.345,568.000,367.198C568.000,387.806,568.000,400.229,568.000,404.468ZZ" style="fill: rgb(255, 255, 255);"/></g><g id="strokes-fd262ed2-27bb-807f-8002-d0342b5e12ae" class="strokes"><g class="stroke-shape"><path fill-rule="evenodd" stroke="none" rx="0" ry="0" d="M367.823,688.794L203.000,730.000L238.225,589.101C203.339,543.145,183.000,487.913,183.000,428.500C183.000,268.614,330.298,139.000,512.000,139.000C693.702,139.000,841.000,268.614,841.000,428.500C841.000,588.386,693.702,718.000,512.000,718.000C460.287,718.000,411.361,707.501,367.823,688.794ZL367.823,688.794ZZM418.667,404.468L415.000,404.468C406.716,404.468,400.000,411.184,400.000,419.468L400.000,551.000C400.000,559.284,406.716,566.000,415.000,566.000L609.000,566.000C617.284,566.000,624.000,559.284,624.000,551.000L624.000,419.468C624.000,411.184,617.284,404.468,609.000,404.468L605.333,404.468L605.333,367.191C605.333,315.770,563.576,274.000,511.956,274.000C460.424,274.000,418.667,315.770,418.667,367.191L418.667,404.468ZZM568.000,404.468L456.000,404.468L456.000,367.198C456.000,336.345,481.054,311.277,511.974,311.277C542.946,311.277,568.000,336.345,568.000,367.198C568.000,387.806,568.000,400.229,568.000,404.468ZZ" style="fill: none; stroke-width: 1;"/></g></g></g><g id="shape-fd262ed2-27bb-807f-8002-d0342b5eec63"><g class="fills" id="fills-fd262ed2-27bb-807f-8002-d0342b5eec63"><path fill-rule="evenodd" stroke="none" rx="0" ry="0" d="M567.951,847.990C567.951,878.940,542.908,904.000,511.949,904.000C481.043,904.000,456.000,878.940,456.000,847.990C456.000,817.099,481.043,792.000,511.949,792.000C542.908,792.000,567.951,817.099,567.951,847.990ZZM366.000,847.990C366.000,878.940,340.957,904.000,309.998,904.000C279.092,904.000,254.049,878.940,254.049,847.990C254.049,817.099,279.092,792.000,309.998,792.000C340.957,792.000,366.000,817.099,366.000,847.990ZZM769.902,847.990C769.902,878.940,744.859,904.000,713.901,904.000C682.995,904.000,657.951,878.940,657.951,847.990C657.951,817.099,682.995,792.000,713.901,792.000C744.859,792.000,769.902,817.099,769.902,847.990ZZ" style="fill: rgb(0, 150, 255);"/></g><g id="strokes-fd262ed2-27bb-807f-8002-d0342b5eec63" class="strokes"><g class="stroke-shape"><path fill-rule="evenodd" stroke="none" rx="0" ry="0" d="M567.951,847.990C567.951,878.940,542.908,904.000,511.949,904.000C481.043,904.000,456.000,878.940,456.000,847.990C456.000,817.099,481.043,792.000,511.949,792.000C542.908,792.000,567.951,817.099,567.951,847.990ZZM366.000,847.990C366.000,878.940,340.957,904.000,309.998,904.000C279.092,904.000,254.049,878.940,254.049,847.990C254.049,817.099,279.092,792.000,309.998,792.000C340.957,792.000,366.000,817.099,366.000,847.990ZZM769.902,847.990C769.902,878.940,744.859,904.000,713.901,904.000C682.995,904.000,657.951,878.940,657.951,847.990C657.951,817.099,682.995,792.000,713.901,792.000C744.859,792.000,769.902,817.099,769.902,847.990ZZ" style="fill: none; stroke-width: 1;"/></g></g></g></g></g></g></g></g></svg>