<?xml version="1.0" encoding="UTF-8"?>
<svg viewBox="0 0 120 139" version="1.1" xmlns="http://www.w3.org/2000/svg" xmlns:xlink="http://www.w3.org/1999/xlink">
    <g class="fill-opacity" stroke="none" stroke-width="1" fill="none" fill-rule="evenodd" fill-opacity="0.12">
        <g transform="translate(-606.000000, -315.000000)" fill="#000000" fill-rule="nonzero">
            <path d="M665.990935,433.649757 C671.636978,433.649757 676.203885,438.210166 676.203885,443.822943 C676.203885,449.446472 671.636547,454 665.990935,454 C660.354388,454 655.787482,449.446472 655.787482,443.822943 C655.78705,438.210166 660.354388,433.649757 665.990935,433.649757 Z M629.160863,433.649757 C634.806906,433.649757 639.373813,438.210166 639.373813,443.822943 C639.373813,449.446472 634.806475,454 629.160863,454 C623.524317,454 618.95741,449.446472 618.95741,443.822943 C618.95741,438.210166 623.524317,433.649757 629.160863,433.649757 Z M702.820576,433.649757 C708.466619,433.649757 713.033525,438.210166 713.033525,443.822943 C713.033525,449.446472 708.466187,454 702.820576,454 C697.184029,454 692.617122,449.446472 692.617122,443.822943 C692.617122,438.210166 697.18446,433.649757 702.820576,433.649757 Z M666,315 C699.137266,315 726,338.550786 726,367.602103 C726,396.65342 699.137266,420.204207 666,420.204207 C656.569209,420.204207 647.646475,418.296439 639.706187,414.897635 L609.64705,422.384636 L616.070935,396.7833 C609.709209,388.432729 606,378.397163 606,367.602103 C606,338.550786 632.862734,315 666,315 Z M665.99223,339.529614 C656.594245,339.529614 648.978993,347.1194 648.978993,356.462561 L648.978993,363.235654 L648.31036,363.235654 C646.799568,363.235654 645.574964,364.455748 645.574964,365.960975 L645.574964,389.860114 C645.574964,391.365342 646.799568,392.585436 648.31036,392.585436 L683.690504,392.585436 C685.201295,392.585436 686.425899,391.365342 686.425899,389.860114 L686.425899,365.960975 C686.425899,364.455748 685.201295,363.235654 683.690504,363.235654 L683.021871,363.235654 L683.021871,356.462131 C683.021439,347.11897 675.405755,339.529614 665.99223,339.529614 Z M665.995252,346.302707 C671.643453,346.302707 676.21295,350.857525 676.21295,356.463421 L676.21295,363.235224 L655.78705,363.235224 L655.78705,356.463421 C655.78705,350.857525 660.356547,346.302707 665.995252,346.302707 Z"></path>
        </g>
    </g>
</svg>