<?xml version="1.0" encoding="UTF-8"?>
<svg width="64px" height="80px" viewBox="0 0 64 80" version="1.1" xmlns="http://www.w3.org/2000/svg" xmlns:xlink="http://www.w3.org/1999/xlink">
    <title>FBFA3EA5-F40D-43ED-B1D3-16B76A8EA35C</title>
    <g id="Styleguide" stroke="none" stroke-width="1" fill="none" fill-rule="evenodd">
        <g id="14" transform="translate(-1172.000000, -3525.000000)" fill-rule="nonzero">
            <g id="Avatar" transform="translate(224.000000, 3221.000000)">
                <g id="Group-4" transform="translate(0.000000, 53.000000)">
                    <g id="Group-13" transform="translate(660.000000, 0.000000)">
                        <g id="Overlay-/-Forward-/-Image" transform="translate(0.000000, 51.000000)">
                            <g id="Image-/-Thumbs" transform="translate(0.000000, 56.000000)">
                                <g id="Group" transform="translate(288.000000, 144.000000)">
                                    <g id="File" transform="translate(0.003079, 0.001408)">
                                        <path d="M41.8387391,0 L42.3526035,0.0116680535 C42.4996755,0.0176150437 42.6251441,0.0256799202 42.7368476,0.0360434244 L43.0385011,0.0742105617 L43.3045939,0.127253915 C43.4683465,0.164994839 43.6243003,0.211947612 43.775267,0.269276975 L43.9972829,0.362714549 L44.1958368,0.462521539 L44.1958368,0.462521539 L44.3954927,0.579118967 L44.3954927,0.579118967 L44.621156,0.729767681 C44.6969247,0.784123066 44.7751311,0.844422503 44.8614455,0.916080702 L45.1503831,1.1705463 L45.5219907,1.52565274 L62.4698606,18.4735227 L62.824967,18.8451302 L63.1790777,19.2581672 L63.1790777,19.2581672 L63.228,19.328 L63.2657456,19.3743573 L63.4163944,19.6000206 L63.5812465,19.8917574 L63.5812465,19.8917574 L63.6323143,19.9971848 L63.6323143,19.9971848 C63.7338411,20.2158269 63.8114765,20.4445462 63.8682594,20.6909194 L63.9213028,20.9570122 L63.9594699,21.2586657 L63.9733138,21.4375246 L63.9733138,21.4375246 L63.9911999,21.8807001 L63.996921,22.4770108 L63.993842,70.2875603 L63.9693291,71.2712362 C63.8959888,73.1061225 63.6773969,74.1781762 63.3249851,75.0626805 L63.1376805,75.4919669 C63.0715637,75.6316282 63.0017826,75.7687432 62.9283902,75.9059751 C62.2311618,77.2096788 61.2080075,78.2328331 59.9043038,78.9300615 C59.7670718,79.003454 59.6299569,79.0732351 59.4902955,79.1393519 L59.0610091,79.3266565 C58.1765048,79.6790682 57.1044512,79.8976601 55.2695649,79.9710004 L54.285889,79.9955133 L9.70795303,79.9955133 L8.72427713,79.9710004 C6.88939081,79.8976601 5.81733717,79.6790682 4.93283286,79.3266565 L4.50354646,79.1393519 C4.36388513,79.0732351 4.22677015,79.003454 4.08953819,78.9300615 C2.78583448,78.2328331 1.76268019,77.2096788 1.06545181,75.9059751 C0.992059355,75.7687432 0.922278262,75.6316282 0.856161462,75.4919669 L0.668856865,75.0626805 C0.316445126,74.1781762 0.0978532155,73.1061225 0.024512921,71.2712362 L0,70.2875603 L0,9.70962436 L0.024512921,8.72594846 C0.0978532155,6.89106214 0.316445126,5.8190085 0.668856865,4.93450418 L0.856161462,4.50521778 C0.922278262,4.36555646 0.992059355,4.22844148 1.06545181,4.09120951 C1.76268019,2.78750581 2.78583448,1.76435151 4.08953819,1.06712314 C4.22677015,0.993730682 4.36388513,0.923949589 4.50354646,0.85783279 L4.93283286,0.670528192 C5.81733717,0.318116453 6.88939081,0.0995245427 8.72427713,0.0261842481 L9.70795303,0.00167132713 L41.8387391,0 Z" id="Background" fill="#FFFFFF"></path>
                                        <path d="M41.8387391,0 L42.3526035,0.0116680535 C42.4996755,0.0176150437 42.6251441,0.0256799202 42.7368476,0.0360434244 L43.0385011,0.0742105617 L43.3045939,0.127253915 C43.4683465,0.164994839 43.6243003,0.211947612 43.775267,0.269276975 L43.9972829,0.362714549 L44.1958368,0.462521539 L44.3954927,0.579118967 L44.621156,0.729767681 C44.6969247,0.784123066 44.7751311,0.844422503 44.8614455,0.916080702 L45.1503831,1.1705463 L45.5219907,1.52565274 L62.4698606,18.4735227 L62.824967,18.8451302 L63.1790777,19.2581672 L63.228,19.328 L63.2657456,19.3743573 L63.4163944,19.6000206 L63.5812465,19.8917574 L63.6323143,19.9971848 C63.7338411,20.2158269 63.8114765,20.4445462 63.8682594,20.6909194 L63.9213028,20.9570122 L63.9594699,21.2586657 L63.9733138,21.4375246 L63.9911999,21.8807001 L63.996921,22.4770108 L63.993842,70.2875603 L63.9693291,71.2712362 C63.8959888,73.1061225 63.6773969,74.1781762 63.3249851,75.0626805 L63.1376805,75.4919669 C63.0715637,75.6316282 63.0017826,75.7687432 62.9283902,75.9059751 C62.2311618,77.2096788 61.2080075,78.2328331 59.9043038,78.9300615 C59.7670718,79.003454 59.6299569,79.0732351 59.4902955,79.1393519 L59.0610091,79.3266565 C58.1765048,79.6790682 57.1044512,79.8976601 55.2695649,79.9710004 L54.285889,79.9955133 L9.70795303,79.9955133 L8.72427713,79.9710004 C6.88939081,79.8976601 5.81733717,79.6790682 4.93283286,79.3266565 L4.50354646,79.1393519 C4.36388513,79.0732351 4.22677015,79.003454 4.08953819,78.9300615 C2.78583448,78.2328331 1.76268019,77.2096788 1.06545181,75.9059751 C0.992059355,75.7687432 0.922278262,75.6316282 0.856161462,75.4919669 L0.668856865,75.0626805 C0.316445126,74.1781762 0.0978532155,73.1061225 0.024512921,71.2712362 L0,70.2875603 L0,9.70962436 L0.024512921,8.72594846 C0.0978532155,6.89106214 0.316445126,5.8190085 0.668856865,4.93450418 L0.856161462,4.50521778 C0.922278262,4.36555646 0.992059355,4.22844148 1.06545181,4.09120951 C1.76268019,2.78750581 2.78583448,1.76435151 4.08953819,1.06712314 C4.22677015,0.993730682 4.36388513,0.923949589 4.50354646,0.85783279 L4.93283286,0.670528192 C5.81733717,0.318116453 6.88939081,0.0995245427 8.72427713,0.0261842481 L9.70795303,0.00167132713 L41.8387391,0 Z M41.5185025,0.998592327 L10.2524618,0.998592327 L9.23102332,1.00915397 L8.34298228,1.04222126 C6.55021887,1.13974571 5.56820886,1.41034844 4.56113704,1.94893634 C3.43170181,2.55296491 2.55129358,3.43337314 1.94726501,4.56280837 C1.40867711,5.56988019 1.13807438,6.5518902 1.04054993,8.34465361 L1.00281333,9.47483494 L0.996921,69.7430515 L1.00748265,70.76449 L1.04054993,71.652531 C1.13807438,73.4452945 1.40867711,74.4273045 1.94726501,75.4343763 C2.55129358,76.5638115 3.43170181,77.4442197 4.56113704,78.0482483 C5.56820886,78.5868362 6.55021887,78.8574389 8.34298228,78.9549634 L9.23102332,78.9880307 L10.2524618,78.9985923 L53.7413802,78.9985923 L54.7628187,78.9880307 L55.6508597,78.9549634 C57.4436231,78.8574389 58.4256331,78.5868362 59.432705,78.0482483 C60.5621402,77.4442197 61.4425484,76.5638115 62.046577,75.4343763 C62.5851649,74.4273045 62.8557676,73.4452945 62.9532921,71.652531 L62.9863594,70.76449 L62.996921,69.7430515 L62.9956996,22.1651473 L62.9849264,21.6765014 L62.9429282,21.1760149 L62.8938055,20.9155069 C62.8274797,20.6277286 62.7251346,20.3806457 62.568544,20.1302563 L62.476,19.996 L51.996921,19.9985923 C47.578643,19.9985923 43.996921,16.4168703 43.996921,11.9985923 L43.996,1.516 L43.8652571,1.4269693 C43.6148676,1.27037869 43.3677848,1.16803363 43.0800064,1.10170784 L42.8194984,1.05258514 L42.3190119,1.01058691 L41.5185025,0.998592327 Z M44.996921,2.41459233 L44.996921,11.9985923 C44.996921,15.7357191 47.9254762,18.7888452 51.6127413,18.9882346 L51.9968,18.9985923 L61.576921,18.9965923 L44.996921,2.41459233 Z" id="Outlines" fill-opacity="0.12" fill="#000000"></path>
                                    </g>
                                </g>
                            </g>
                        </g>
                    </g>
                </g>
            </g>
        </g>
    </g>
</svg>