<svg xmlns="http://www.w3.org/2000/svg" version="1.1" viewBox="0 0 991.09998 181.75"><path d="m 883.943,45.5 c 36.382,0 55.123,18.377 55.494,44.943 l 0.006,0.807 v 86.25 h -29.25 v -13.25 c -7.75,10.75 -21.5,17.5 -41.25,17.5 -24.25,0 -45.75,-10.5 -45.75,-36.5 0,-29.2 25.727,-39.543 54.38,-44.841 l 30.87,-5.659 v -3 c 0,-12.5 -9.25,-19.5 -24,-19.5 -16.7,0 -25.655,7.281 -37.949,19.022 l -1.8,1.728 -20.5,-18.75 c 15.999,-19 34.499,-28.75 59.749,-28.75 z m -328.815,0 c 39,0 59.75,24.5 59.75,63.75 l -0.007,1.3 c -0.043,3.756 -0.252,8.6 -0.467,11.154 l -0.026,0.3 h -91.75 c 2.75,18.5 13.75,32 36,32 14.621,0 22.591,-4.75 36.874,-16.565 l 1.126,-0.935 18.25,20 c -18.75,19 -36.25,25 -57,25 -41.25,0 -67,-26.5 -67,-67.25 0,-39.504 24,-68.754 64.25,-68.754 z m -129.657,0 c 39,0 59.75,24.5 59.75,63.75 l -0.008,1.3 c -0.038,3.456 -0.218,7.828 -0.414,10.5 l -0.078,0.952 h -91.75 c 2.75,18.5 13.75,32 36,32 14.62,0 22.591,-4.75 36.874,-16.565 l 1.126,-0.935 18.25,20 c -18.75,19 -36.25,25 -57,25 -41.25,0 -67,-26.5 -67,-67.25 0,-39.502 24,-68.752 64.25,-68.752 z M 991.1,141.25 V 177.5 H 955.6 V 141.25 Z M 767.535,45.5 c 27.225,0 42.2,16.417 42.5,41.973 V 177.5 h -32.5 V 98 c 0,-14.25 -5.5,-24.5 -20.25,-24.5 -14.6,0 -22.344,10.781 -22.5,25.066 V 177.5 H 702.284 V 98 c 0,-14.25 -5.25,-24.5 -20.25,-24.5 -14.6,0 -22.344,11.026 -22.5,25.073 V 177.5 h -32.5 V 49.75 h 30.25 V 64 c 6.75,-11 18.5,-18.5 36.5,-18.5 16.75,0 28.75,7 35.5,18.75 7.5,-10.75 19.5,-18.75 38.251,-18.75 z M 347.064,48 c 6.75,0 12.57,1.4 19.478,3.512 l 0.772,0.238 -5.75,28.5 c -5.29127,-1.507506 -10.75029,-2.347356 -16.25,-2.5 -17.077,0 -27.784,13.476 -28,36.063 V 177.5 h -32.5 V 49.75 h 30.25 V 68.5 c 6,-12.25 16.25,-20.5 32,-20.5 z M 184.907,0 v 61.25 c 8,-9.75 20.25,-15.75 36.25,-15.75 29.452,0 45.429,18.132 45.745,43.722 V 177.5 h -32.5 V 99.75 c 0,-16.75 -8.25,-26.25 -23.75,-26.25 -14.85,0 -25.535,10.781 -25.747,26.522 V 177.5 h -32.5 V 0 Z M 142,0 V 30 H 88.5 v 147.5 h -35 V 30 H 0 V 0 Z M 908.443,125.5 V 118 l -22.648,4.741 c -18.607,3.942 -30.852,8.5 -30.852,20.259 0,8 7.25,12.75 19.5,12.75 16.335,0 33.65,-7.841 33.994,-29.587 z M 424.471,71 c -17.077,0 -27.049,11.026 -30.643,27.257 l -0.107,0.493 h 59.75 c -1.25,-17 -11.25,-27.75 -29,-27.75 z m 129.657,0 c -17.077,0 -27.049,11.026 -30.643,27.257 l -0.107,0.493 h 59.75 c -1.25,-17 -11.25,-27.75 -29,-27.75 z" /></svg>
