<svg xmlns:xlink="http://www.w3.org/1999/xlink" width="1024" xmlns="http://www.w3.org/2000/svg" height="1024" id="screenshot-fd262ed2-27bb-807f-8002-d033305b870c" viewBox="0 0 1024 1024" style="-webkit-print-color-adjust: exact;" fill="none" version="1.1"><g id="shape-fd262ed2-27bb-807f-8002-d033305b870c"><defs><clipPath class="frame-clip-def frame-clip" id="frame-clip-fd262ed2-27bb-807f-8002-d033305b870c-rumext-id-1"><rect rx="0" ry="0" x="0" y="0" width="1024" height="1024" transform="matrix(1.000000, 0.000000, 0.000000, 1.000000, 0.000000, 0.000000)"/></clipPath></defs><g clip-path="url(#frame-clip-fd262ed2-27bb-807f-8002-d033305b870c-rumext-id-1)"><clipPath class="frame-clip-def frame-clip" id="frame-clip-fd262ed2-27bb-807f-8002-d033305b870c-rumext-id-1"><rect rx="0" ry="0" x="0" y="0" width="1024" height="1024" transform="matrix(1.000000, 0.000000, 0.000000, 1.000000, 0.000000, 0.000000)"/></clipPath><g class="fills" id="fills-fd262ed2-27bb-807f-8002-d033305b870c"><rect rx="0" ry="0" x="0" y="0" transform="matrix(1.000000, 0.000000, 0.000000, 1.000000, 0.000000, 0.000000)" width="1024" height="1024" class="frame-background"/></g><g class="frame-children"><g id="shape-60e348b1-588c-8043-8002-d55903189336" rx="0" ry="0"><g id="shape-60e348b1-588c-8043-8002-d558686cb488" rx="0" ry="0"><g clip-path="url(#rumext-id-3-fd262ed2-27bb-807f-8002-d03400462143-clip)"><g mask="url(#rumext-id-3-fd262ed2-27bb-807f-8002-d03400462143-mask)"><defs><filter id="rumext-id-3-fd262ed2-27bb-807f-8002-d03400462143-filter"><feFlood flood-color="white" result="FloodResult"/><feComposite in="FloodResult" in2="SourceGraphic" operator="in" result="comp"/></filter><clipPath id="rumext-id-3-fd262ed2-27bb-807f-8002-d03400462143-clip" class="mask-clip-path"><polyline points="0,0 1024,0 1024,1024 0,1024"/></clipPath><mask width="1024" maskUnits="userSpaceOnUse" height="1024" class="mask-shape" x="0" id="rumext-id-3-fd262ed2-27bb-807f-8002-d03400462143-mask" data-old-y="0" data-old-width="1024" data-old-x="0" y="0" data-old-height="1024"><g filter="url(#rumext-id-3-fd262ed2-27bb-807f-8002-d03400462143-filter)"><g id="shape-fd262ed2-27bb-807f-8002-d03400462143"><g class="fills" id="fills-fd262ed2-27bb-807f-8002-d03400462143"><rect width="1024" height="1024" x="0" transform="matrix(1.000000, 0.000000, 0.000000, 1.000000, 0.000000, 0.000000)" fill-rule="evenodd" stroke="none" style="opacity: 1; fill: rgb(0, 0, 0); fill-opacity: 1;" ry="125" rx="125" y="0"/></g><g id="strokes-fd262ed2-27bb-807f-8002-d03400462143" class="strokes"><g class="stroke-shape"><rect width="1024" height="1024" x="0" transform="matrix(1.000000, 0.000000, 0.000000, 1.000000, 0.000000, 0.000000)" fill-rule="evenodd" stroke="none" style="opacity: 1; fill: none; stroke-width: 1;" ry="125" rx="125" y="0"/></g></g></g></g></mask></defs><g id="shape-a2e8869c-9536-80a3-8002-d6ab38eeb411"><g class="fills" id="fills-a2e8869c-9536-80a3-8002-d6ab38eeb411"><rect width="1024" height="1024" x="0" transform="matrix(1.000000, 0.000000, 0.000000, 1.000000, 0.000000, 0.000000)" fill-rule="evenodd" stroke="none" style="opacity: 1; fill: rgb(178, 140, 97); fill-opacity: 1;" ry="50" rx="50" y="0"/></g><g id="strokes-a2e8869c-9536-80a3-8002-d6ab38eeb411" class="strokes"><g class="stroke-shape"><rect width="1024" height="1024" x="0" transform="matrix(1.000000, 0.000000, 0.000000, 1.000000, 0.000000, 0.000000)" fill-rule="evenodd" stroke="none" style="opacity: 1; fill: none; stroke-width: 1;" ry="50" rx="50" y="0"/></g></g></g><g id="shape-60e348b1-588c-8043-8002-d5584db3f199"><defs><linearGradient id="fill-color-gradient_rumext-id-6_0" x1="0.5224474721551342" y1="0.5585299233706451" x2="1.1331695830008375" y2="1.526821177813328" gradientTransform=""><stop offset="0" stop-color="#f2c99b" stop-opacity="1"/><stop offset="1" stop-color="#e8b663" stop-opacity="0.15"/></linearGradient><pattern patternUnits="userSpaceOnUse" x="0" y="0" height="1024" width="1024" data-loading="false" id="fill-0-rumext-id-6"><g><rect width="1024" height="1024" style="fill: url(&quot;#fill-color-gradient_rumext-id-6_0&quot;);"/></g></pattern></defs><g class="fills" id="fills-60e348b1-588c-8043-8002-d5584db3f199"><rect width="1024" height="1024" x="0" transform="matrix(1.000000, 0.000000, 0.000000, 1.000000, 0.000000, 0.000000)" fill-rule="evenodd" stroke="none" style="opacity: 1;" ry="50" fill="url(#fill-0-rumext-id-6)" rx="50" y="0"/></g><g id="strokes-60e348b1-588c-8043-8002-d5584db3f199" class="strokes"><g class="stroke-shape"><rect width="1024" height="1024" x="0" transform="matrix(1.000000, 0.000000, 0.000000, 1.000000, 0.000000, 0.000000)" fill-rule="evenodd" stroke="none" style="opacity: 1; fill: none; stroke-width: 1;" ry="50" rx="50" y="0"/></g></g></g><g id="shape-60e348b1-588c-8043-8002-d556f18123ef"><defs><radialGradient id="fill-color-gradient_rumext-id-7_0" cx="0.4981187910948375" cy="-0.07833044953292312" r="0.9519893579550947" gradientTransform="matrix(-3.077878, 0.019881, -0.006459, -0.999979, 2.030762, -0.166562)"><stop offset="0" stop-color="#fffbee" stop-opacity="1"/><stop offset="1" stop-color="#e8b663" stop-opacity="0"/></radialGradient><pattern patternUnits="userSpaceOnUse" x="0" y="0" height="1024" width="1024" data-loading="false" id="fill-0-rumext-id-7"><g><rect width="1024" height="1024" style="fill: url(&quot;#fill-color-gradient_rumext-id-7_0&quot;);"/></g></pattern></defs><g class="fills" id="fills-60e348b1-588c-8043-8002-d556f18123ef"><rect width="1024" height="1024" x="0" transform="matrix(1.000000, 0.000000, 0.000000, 1.000000, 0.000000, 0.000000)" fill-rule="evenodd" stroke="none" style="opacity: 1;" ry="50" fill="url(#fill-0-rumext-id-7)" rx="50" y="0"/></g><g id="strokes-60e348b1-588c-8043-8002-d556f18123ef" class="strokes"><g class="stroke-shape"><rect width="1024" height="1024" x="0" transform="matrix(1.000000, 0.000000, 0.000000, 1.000000, 0.000000, 0.000000)" fill-rule="evenodd" stroke="none" style="opacity: 1; fill: none; stroke-width: 1;" ry="50" rx="50" y="0"/></g></g></g><g id="shape-60e348b1-588c-8043-8002-d55c9ad00da5"><g class="fills" id="fills-60e348b1-588c-8043-8002-d55c9ad00da5"><ellipse rx="238" ry="238" cx="512" cy="427" transform="matrix(1.000000, 0.000000, 0.000000, 1.000000, 0.000000, 0.000000)" style="fill: rgb(218, 181, 137); fill-opacity: 1;"/></g></g><g id="shape-fd262ed2-27bb-807f-8002-d03400471347"><g class="fills" id="fills-fd262ed2-27bb-807f-8002-d03400471347"><path fill-rule="evenodd" stroke="none" rx="0" ry="0" d="M511.949,792.000C542.908,792.000,567.951,817.099,567.951,847.990C567.951,878.940,542.908,904.000,511.949,904.000C481.043,904.000,456.000,878.940,456.000,847.990C456.000,817.099,481.043,792.000,511.949,792.000ZZM309.998,792.000C340.957,792.000,366.000,817.099,366.000,847.990C366.000,878.940,340.957,904.000,309.998,904.000C279.092,904.000,254.049,878.940,254.049,847.990C254.049,817.099,279.092,792.000,309.998,792.000ZZM713.901,792.000C744.859,792.000,769.902,817.099,769.902,847.990C769.902,878.940,744.859,904.000,713.901,904.000C682.995,904.000,657.951,878.940,657.951,847.990C657.951,817.099,682.995,792.000,713.901,792.000ZZM512.000,139.000C693.702,139.000,841.000,268.614,841.000,428.500C841.000,588.386,693.702,718.000,512.000,718.000C460.287,718.000,411.361,707.501,367.823,688.794L203.000,730.000L238.225,589.101C203.339,543.145,183.000,487.913,183.000,428.500C183.000,268.614,330.298,139.000,512.000,139.000ZZM511.956,274.000C460.424,274.000,418.667,315.770,418.667,367.191L418.667,404.468L415.000,404.468C406.716,404.468,400.000,411.184,400.000,419.468L400.000,551.000C400.000,559.284,406.716,566.000,415.000,566.000L609.000,566.000C617.284,566.000,624.000,559.284,624.000,551.000L624.000,419.468C624.000,411.184,617.284,404.468,609.000,404.468L605.333,404.468L605.333,367.191C605.333,315.770,563.576,274.000,511.956,274.000ZZM511.974,311.277C542.946,311.277,568.000,336.345,568.000,367.198L568.000,404.468L456.000,404.468L456.000,367.198C456.000,336.345,481.054,311.277,511.974,311.277ZZ" style="fill: rgb(255, 255, 255);"/></g><g id="strokes-fd262ed2-27bb-807f-8002-d03400471347" class="strokes"><g class="stroke-shape"><path fill-rule="evenodd" stroke="none" rx="0" ry="0" d="M511.949,792.000C542.908,792.000,567.951,817.099,567.951,847.990C567.951,878.940,542.908,904.000,511.949,904.000C481.043,904.000,456.000,878.940,456.000,847.990C456.000,817.099,481.043,792.000,511.949,792.000ZZM309.998,792.000C340.957,792.000,366.000,817.099,366.000,847.990C366.000,878.940,340.957,904.000,309.998,904.000C279.092,904.000,254.049,878.940,254.049,847.990C254.049,817.099,279.092,792.000,309.998,792.000ZZM713.901,792.000C744.859,792.000,769.902,817.099,769.902,847.990C769.902,878.940,744.859,904.000,713.901,904.000C682.995,904.000,657.951,878.940,657.951,847.990C657.951,817.099,682.995,792.000,713.901,792.000ZZM512.000,139.000C693.702,139.000,841.000,268.614,841.000,428.500C841.000,588.386,693.702,718.000,512.000,718.000C460.287,718.000,411.361,707.501,367.823,688.794L203.000,730.000L238.225,589.101C203.339,543.145,183.000,487.913,183.000,428.500C183.000,268.614,330.298,139.000,512.000,139.000ZZM511.956,274.000C460.424,274.000,418.667,315.770,418.667,367.191L418.667,404.468L415.000,404.468C406.716,404.468,400.000,411.184,400.000,419.468L400.000,551.000C400.000,559.284,406.716,566.000,415.000,566.000L609.000,566.000C617.284,566.000,624.000,559.284,624.000,551.000L624.000,419.468C624.000,411.184,617.284,404.468,609.000,404.468L605.333,404.468L605.333,367.191C605.333,315.770,563.576,274.000,511.956,274.000ZZM511.974,311.277C542.946,311.277,568.000,336.345,568.000,367.198L568.000,404.468L456.000,404.468L456.000,367.198C456.000,336.345,481.054,311.277,511.974,311.277ZZ" style="fill: none; stroke-width: 1;"/></g></g></g></g></g></g></g></g></g></g></svg>