<svg xmlns:xlink="http://www.w3.org/1999/xlink" width="1024" xmlns="http://www.w3.org/2000/svg" height="1024" id="screenshot-a2e8869c-9536-80a3-8002-d6ab008ac2d6" viewBox="0 0 1024 1024" style="-webkit-print-color-adjust: exact;" fill="none" version="1.1"><g id="shape-a2e8869c-9536-80a3-8002-d6ab008ac2d6"><defs><clipPath class="frame-clip-def frame-clip" id="frame-clip-a2e8869c-9536-80a3-8002-d6ab008ac2d6-rumext-id-50"><rect rx="0" ry="0" x="0" y="0" width="1024" height="1024" transform="matrix(1.000000, 0.000000, 0.000000, 1.000000, 0.000000, 0.000000)"/></clipPath></defs><g clip-path="url(#frame-clip-a2e8869c-9536-80a3-8002-d6ab008ac2d6-rumext-id-50)"><clipPath class="frame-clip-def frame-clip" id="frame-clip-a2e8869c-9536-80a3-8002-d6ab008ac2d6-rumext-id-50"><rect rx="0" ry="0" x="0" y="0" width="1024" height="1024" transform="matrix(1.000000, 0.000000, 0.000000, 1.000000, 0.000000, 0.000000)"/></clipPath><g class="fills" id="fills-a2e8869c-9536-80a3-8002-d6ab008ac2d6"><rect rx="0" ry="0" x="0" y="0" transform="matrix(1.000000, 0.000000, 0.000000, 1.000000, 0.000000, 0.000000)" width="1024" height="1024" class="frame-background"/></g><g class="frame-children"><g id="shape-3bf9817f-fa23-809f-8003-ef59ffd1957a" rx="0" ry="0"><g clip-path="url(#rumext-id-51-3bf9817f-fa23-809f-8003-ef569f4c4611-clip)"><g mask="url(#rumext-id-51-3bf9817f-fa23-809f-8003-ef569f4c4611-mask)"><defs><filter id="rumext-id-51-3bf9817f-fa23-809f-8003-ef569f4c4611-filter"><feFlood flood-color="white" result="FloodResult"/><feComposite in="FloodResult" in2="SourceGraphic" operator="in" result="comp"/></filter><clipPath id="rumext-id-51-3bf9817f-fa23-809f-8003-ef569f4c4611-clip" class="mask-clip-path"><polyline points="0,0 1024,0 1024,1024 0,1024"/></clipPath><mask width="1024" maskUnits="userSpaceOnUse" height="1024" class="mask-shape" x="0" id="rumext-id-51-3bf9817f-fa23-809f-8003-ef569f4c4611-mask" data-old-y="0" data-old-width="1024" data-old-x="0" y="0" data-old-height="1024"><g filter="url(#rumext-id-51-3bf9817f-fa23-809f-8003-ef569f4c4611-filter)"><g id="shape-3bf9817f-fa23-809f-8003-ef569f4c4611"><g class="fills" id="fills-3bf9817f-fa23-809f-8003-ef569f4c4611"><rect width="1024" height="1024" x="0" transform="matrix(1.000000, 0.000000, 0.000000, 1.000000, 0.000000, 0.000000)" fill-rule="evenodd" stroke="none" style="opacity: 1; fill: rgb(0, 0, 0); fill-opacity: 1;" ry="125" rx="125" y="0"/></g><g id="strokes-3bf9817f-fa23-809f-8003-ef569f4c4611" class="strokes"><g class="stroke-shape"><rect width="1024" height="1024" x="0" transform="matrix(1.000000, 0.000000, 0.000000, 1.000000, 0.000000, 0.000000)" fill-rule="evenodd" stroke="none" style="opacity: 1; fill: none; stroke-width: 1;" ry="125" rx="125" y="0"/></g></g></g></g></mask></defs><g id="shape-3bf9817f-fa23-809f-8003-ef59e979dfd4" rx="0" ry="0" style="fill: rgb(0, 0, 0);"><g id="shape-3bf9817f-fa23-809f-8003-ef59e979dfd5"><defs><linearGradient x1="512" y1="0" x2="512" y2="1024" id="rumext-id-54-linearGradient-1"><stop stop-color="#FFFFFF" offset="0%"/><stop stop-color="#F5F9F4" offset="100%"/></linearGradient><linearGradient id="fill-color-gradient_rumext-id-54_0" x1="0.5" y1="0" x2="0.5" y2="1" gradientTransform=""><stop offset="0" stop-color="#FFFFFF" stop-opacity="1"/><stop offset="1" stop-color="#F5F9F4" stop-opacity="1"/></linearGradient><pattern patternUnits="userSpaceOnUse" x="0" y="0" height="1024" width="1024" data-loading="false" id="fill-0-rumext-id-54"><g><rect width="1024" height="1024" style="fill: url(&quot;#fill-color-gradient_rumext-id-54_0&quot;);"/></g></pattern></defs><g class="fills" id="fills-3bf9817f-fa23-809f-8003-ef59e979dfd5"><rect width="1024" height="1024" x="0" transform="matrix(1.000000, 0.000000, 0.000000, 1.000000, 0.000000, 0.000000)" fill-rule="evenodd" stroke="none" ry="0" fill="url(#fill-0-rumext-id-54)" rx="0" y="0"/></g><g id="strokes-3bf9817f-fa23-809f-8003-ef59e979dfd5" class="strokes"><g class="stroke-shape"><rect width="1024" height="1024" x="0" transform="matrix(1.000000, 0.000000, 0.000000, 1.000000, 0.000000, 0.000000)" fill-rule="evenodd" stroke="none" style="fill: none; stroke-width: 1;" ry="0" rx="0" y="0"/></g></g></g><g id="shape-3bf9817f-fa23-809f-8003-ef59e979dfd6" rx="0" ry="0" style="fill: rgb(0, 0, 0);"><g id="shape-3bf9817f-fa23-809f-8003-ef59e979dfd9" rx="0" ry="0" style="fill: rgb(0, 0, 0);"><g id="shape-3bf9817f-fa23-809f-8003-ef59e979dfdc"><g class="fills" id="fills-3bf9817f-fa23-809f-8003-ef59e979dfdc"><path fill-rule="evenodd" stroke="none" rx="0" ry="0" d="M367.823,688.794L203.000,730.000L238.225,589.101C203.339,543.145,183.000,487.913,183.000,428.500C183.000,268.614,330.298,139.000,512.000,139.000C693.702,139.000,841.000,268.614,841.000,428.500C841.000,588.386,693.702,718.000,512.000,718.000C460.287,718.000,411.361,707.501,367.823,688.794ZZ" style="fill: rgb(50, 50, 50);"/></g><g id="strokes-3bf9817f-fa23-809f-8003-ef59e979dfdc" class="strokes"><g class="stroke-shape"><path fill-rule="evenodd" stroke="none" rx="0" ry="0" d="M367.823,688.794L203.000,730.000L238.225,589.101C203.339,543.145,183.000,487.913,183.000,428.500C183.000,268.614,330.298,139.000,512.000,139.000C693.702,139.000,841.000,268.614,841.000,428.500C841.000,588.386,693.702,718.000,512.000,718.000C460.287,718.000,411.361,707.501,367.823,688.794ZZ" style="fill: none; stroke-width: 1;"/></g></g></g></g><g id="shape-3bf9817f-fa23-809f-8003-ef59e979dfda"><defs><linearGradient x1="239.950056448" y1="355.079947264" x2="165.54413568" y2="653.039383552" id="rumext-id-58-linearGradient-4"><stop stop-color="#547D53" offset="0%"/><stop stop-color="#0F230F" offset="100%"/></linearGradient><mask width="1228.8" height="1228.8" x="-102.4" id="rumext-id-58-mask-3" data-old-y="-102.4" data-old-width="1228.8" data-old-x="-102.4" fill="white" y="-102.4" data-old-height="1228.8"><g class="svg-mask-wrapper" transform="matrix(1.000000, 0.000000, 0.000000, 1.000000, 183.000000, 139.000000)"><use xlink:href="#rumext-id-58-path-2"/></g></mask><path d="M184.823,549.794 L20,591 L55.225,450.101 C20.339,404.145 0,348.913 0,289.5 C0,129.614 147.298,0 329,0 C510.702,0 658,129.614 658,289.5 C658,449.386 510.702,579 329,579 C277.287,579 228.361,568.501 184.823,549.794 Z" id="rumext-id-58-path-2"/><linearGradient id="fill-color-gradient_rumext-id-58_0" x1="0.3480915947597665" y1="0.1431927291295659" x2="0.22320291837733125" y2="0.6797622040301248" gradientTransform="matrix(1.000000, 0.000000, 0.000000, 1.000000, 0.000000, 0.000000)"><stop offset="0" stop-color="#547D53" stop-opacity="1"/><stop offset="1" stop-color="#0F230F" stop-opacity="1"/></linearGradient><pattern patternUnits="userSpaceOnUse" x="134.74615570000014" y="243" height="487" width="747.2385912999998" data-loading="false" patternTransform="" id="fill-0-rumext-id-58"><g><rect width="747.2385912999998" height="487" style="fill: url(&quot;#fill-color-gradient_rumext-id-58_0&quot;);"/></g></pattern></defs><g class="fills" id="fills-3bf9817f-fa23-809f-8003-ef59e979dfda"><path fill="url(#fill-0-rumext-id-58)" fill-rule="evenodd" stroke="none" mask="url(#rumext-id-58-mask-3)" rx="0" ry="0" d="M134.746,434.500C286.612,434.500,403.713,243.000,512.000,243.000C618.381,245.594,774.803,438.389,881.985,434.500L881.985,730.000L134.746,730.000L134.746,434.500ZZ"/></g><g id="strokes-3bf9817f-fa23-809f-8003-ef59e979dfda" class="strokes"><g class="stroke-shape"><path fill-rule="evenodd" stroke="none" mask="url(#rumext-id-58-mask-3)" rx="0" ry="0" d="M134.746,434.500C286.612,434.500,403.713,243.000,512.000,243.000C618.381,245.594,774.803,438.389,881.985,434.500L881.985,730.000L134.746,730.000L134.746,434.500ZZ" style="fill: none; stroke-width: 1;"/></g></g></g><g id="shape-3bf9817f-fa23-809f-8003-ef59e979dfdb"><defs><linearGradient x1="512" y1="0" x2="512" y2="1024" id="rumext-id-59-linearGradient-5"><stop stop-color="#0CD273" offset="0%"/><stop stop-color="#05A63F" offset="100%"/></linearGradient><mask width="1228.8" height="1228.8" x="-102.4" id="rumext-id-59-mask-3" data-old-y="-102.4" data-old-width="1228.8" data-old-x="-102.4" fill="white" y="-102.4" data-old-height="1228.8"><g class="svg-mask-wrapper" transform="matrix(1.000000, 0.000000, 0.000000, 1.000000, 183.000000, 139.000000)"><use xlink:href="#rumext-id-59-path-2"/></g></mask><path d="M184.823,549.794 L20,591 L55.225,450.101 C20.339,404.145 0,348.913 0,289.5 C0,129.614 147.298,0 329,0 C510.702,0 658,129.614 658,289.5 C658,449.386 510.702,579 329,579 C277.287,579 228.361,568.501 184.823,549.794 Z" id="rumext-id-59-path-2"/><linearGradient id="fill-color-gradient_rumext-id-59_0" x1="0.5" y1="0" x2="0.6492056349799618" y2="0.935863846987308" gradientTransform="matrix(1.000000, 0.000000, 0.000000, 1.000000, 0.000000, 0.000000)"><stop offset="0" stop-color="#0CD273" stop-opacity="1"/><stop offset="1" stop-color="#05A63F" stop-opacity="1"/></linearGradient><pattern patternUnits="userSpaceOnUse" x="311.3427061386501" y="243.1190676982651" height="486.8809323017349" width="570.6420408613499" data-loading="false" patternTransform="" id="fill-0-rumext-id-59"><g><rect width="570.6420408613499" height="486.8809323017349" style="fill: url(&quot;#fill-color-gradient_rumext-id-59_0&quot;);"/></g></pattern></defs><g class="fills" id="fills-3bf9817f-fa23-809f-8003-ef59e979dfdb"><path fill="url(#fill-0-rumext-id-59)" fill-rule="evenodd" stroke="none" mask="url(#rumext-id-59-mask-3)" rx="0" ry="0" d="M479.875,248.714C544.401,228.981,572.516,307.347,459.239,389.180C345.963,471.012,182.845,668.000,479.875,730.000L881.985,730.000L881.985,434.500C769.902,434.500,594.941,204.732,479.875,248.714ZZ"/></g><g id="strokes-3bf9817f-fa23-809f-8003-ef59e979dfdb" class="strokes"><g class="stroke-shape"><path fill-rule="evenodd" stroke="none" mask="url(#rumext-id-59-mask-3)" rx="0" ry="0" d="M479.875,248.714C544.401,228.981,572.516,307.347,459.239,389.180C345.963,471.012,182.845,668.000,479.875,730.000L881.985,730.000L881.985,434.500C769.902,434.500,594.941,204.732,479.875,248.714ZZ" style="fill: none; stroke-width: 1;"/></g></g></g></g><g id="shape-3bf9817f-fa23-809f-8003-ef59e979dfd7"><g class="fills" id="fills-3bf9817f-fa23-809f-8003-ef59e979dfd7"><path fill-rule="evenodd" stroke="none" rx="0" ry="0" d="M511.956,274.000C563.576,274.000,605.333,315.770,605.333,367.191L605.333,404.468L609.000,404.468C617.284,404.468,624.000,411.184,624.000,419.468L624.000,551.000C624.000,559.284,617.284,566.000,609.000,566.000L415.000,566.000C406.716,566.000,400.000,559.284,400.000,551.000L400.000,419.468C400.000,411.184,406.716,404.468,415.000,404.468L418.667,404.468L418.667,367.191C418.667,315.770,460.424,274.000,511.956,274.000ZZM511.974,311.277C481.054,311.277,456.000,336.345,456.000,367.198L456.000,404.468L568.000,404.468L568.000,367.198C568.000,336.345,542.946,311.277,511.974,311.277ZZ" style="fill: rgb(255, 255, 255);"/></g><g id="strokes-3bf9817f-fa23-809f-8003-ef59e979dfd7" class="strokes"><g class="stroke-shape"><path fill-rule="evenodd" stroke="none" rx="0" ry="0" d="M511.956,274.000C563.576,274.000,605.333,315.770,605.333,367.191L605.333,404.468L609.000,404.468C617.284,404.468,624.000,411.184,624.000,419.468L624.000,551.000C624.000,559.284,617.284,566.000,609.000,566.000L415.000,566.000C406.716,566.000,400.000,559.284,400.000,551.000L400.000,419.468C400.000,411.184,406.716,404.468,415.000,404.468L418.667,404.468L418.667,367.191C418.667,315.770,460.424,274.000,511.956,274.000ZZM511.974,311.277C481.054,311.277,456.000,336.345,456.000,367.198L456.000,404.468L568.000,404.468L568.000,367.198C568.000,336.345,542.946,311.277,511.974,311.277ZZ" style="fill: none; stroke-width: 1;"/></g></g></g><g id="shape-3bf9817f-fa23-809f-8003-ef59e979dfd8"><g class="fills" id="fills-3bf9817f-fa23-809f-8003-ef59e979dfd8"><path fill-rule="evenodd" stroke="none" rx="0" ry="0" d="M567.951,847.990C567.951,878.940,542.908,904.000,511.949,904.000C481.043,904.000,456.000,878.940,456.000,847.990C456.000,817.099,481.043,792.000,511.949,792.000C542.908,792.000,567.951,817.099,567.951,847.990ZZM366.000,847.990C366.000,878.940,340.957,904.000,309.998,904.000C279.092,904.000,254.049,878.940,254.049,847.990C254.049,817.099,279.092,792.000,309.998,792.000C340.957,792.000,366.000,817.099,366.000,847.990ZZM769.902,847.990C769.902,878.940,744.859,904.000,713.901,904.000C682.995,904.000,657.951,878.940,657.951,847.990C657.951,817.099,682.995,792.000,713.901,792.000C744.859,792.000,769.902,817.099,769.902,847.990ZZ" style="fill: rgb(5, 166, 63);"/></g><g id="strokes-3bf9817f-fa23-809f-8003-ef59e979dfd8" class="strokes"><g class="stroke-shape"><path fill-rule="evenodd" stroke="none" rx="0" ry="0" d="M567.951,847.990C567.951,878.940,542.908,904.000,511.949,904.000C481.043,904.000,456.000,878.940,456.000,847.990C456.000,817.099,481.043,792.000,511.949,792.000C542.908,792.000,567.951,817.099,567.951,847.990ZZM366.000,847.990C366.000,878.940,340.957,904.000,309.998,904.000C279.092,904.000,254.049,878.940,254.049,847.990C254.049,817.099,279.092,792.000,309.998,792.000C340.957,792.000,366.000,817.099,366.000,847.990ZZM769.902,847.990C769.902,878.940,744.859,904.000,713.901,904.000C682.995,904.000,657.951,878.940,657.951,847.990C657.951,817.099,682.995,792.000,713.901,792.000C744.859,792.000,769.902,817.099,769.902,847.990ZZ" style="fill: none; stroke-width: 1;"/></g></g></g></g></g></g></g></g></g></g></svg>